# Blender v2.93.1 OBJ File: 'chair.blend'
# www.blender.org
mtllib chair.mtl
o Cube.004
v -0.289427 -0.958974 0.489732
v -0.230253 0.162705 0.489732
v -0.289427 -0.958974 0.449732
v -0.230253 0.162705 0.449732
v -0.249449 -0.961083 0.489732
v -0.190275 0.160596 0.489732
v -0.249449 -0.961083 0.449732
v -0.190275 0.160596 0.449732
v 0.500000 0.025000 -0.500000
v 0.500000 -0.025000 -0.500000
v 0.500000 0.025000 0.500000
v 0.500000 -0.025000 0.500000
v -0.500000 0.025000 -0.500000
v -0.500000 -0.025000 -0.500000
v -0.500000 0.025000 0.500000
v -0.500000 -0.025000 0.500000
v 0.250422 -0.946561 0.495982
v -0.495123 0.909284 0.495982
v 0.250422 -0.946561 0.395982
v -0.495123 0.909284 0.395982
v 0.343214 -0.909284 0.495982
v -0.402331 0.946561 0.495982
v 0.343214 -0.909284 0.395982
v -0.402331 0.946561 0.395982
v 0.250422 -0.946561 -0.436107
v -0.495123 0.909284 -0.436107
v 0.250422 -0.946561 -0.536107
v -0.495123 0.909284 -0.536107
v 0.343214 -0.909284 -0.436107
v -0.402331 0.946561 -0.436107
v 0.343214 -0.909284 -0.536107
v -0.402331 0.946561 -0.536107
v -0.289427 -0.958974 -0.466107
v -0.230253 0.162705 -0.466107
v -0.289427 -0.958974 -0.506107
v -0.230253 0.162705 -0.506107
v -0.249449 -0.961083 -0.466107
v -0.190275 0.160596 -0.466107
v -0.249449 -0.961083 -0.506107
v -0.190275 0.160596 -0.506107
v -0.327717 0.492568 0.495982
v -0.298809 0.432358 0.395982
v -0.215743 0.455427 0.395982
v -0.225855 0.451916 0.495982
v -0.296386 0.414578 -0.436107
v -0.296386 0.414578 -0.536107
v -0.203593 0.451855 -0.536107
v -0.203593 0.451855 -0.436107
v 0.222972 -0.877646 0.395982
v 0.315279 -0.841078 0.395982
v 0.314773 -0.841254 0.495982
v 0.221528 -0.874636 0.495982
v 0.216610 -0.862394 -0.536107
v 0.309402 -0.825117 -0.536107
v 0.309402 -0.825117 -0.436107
v 0.216610 -0.862394 -0.436107
vt 0.375000 0.000000
vt 0.625000 0.000000
vt 0.625000 0.250000
vt 0.375000 0.250000
vt 0.625000 0.500000
vt 0.375000 0.500000
vt 0.625000 0.750000
vt 0.375000 0.750000
vt 0.625000 1.000000
vt 0.375000 1.000000
vt 0.125000 0.500000
vt 0.125000 0.750000
vt 0.875000 0.500000
vt 0.875000 0.750000
vt 0.625000 0.500000
vt 0.875000 0.500000
vt 0.875000 0.750000
vt 0.625000 0.750000
vt 0.375000 0.750000
vt 0.625000 1.000000
vt 0.375000 1.000000
vt 0.375000 0.000000
vt 0.625000 0.000000
vt 0.625000 0.250000
vt 0.375000 0.250000
vt 0.125000 0.500000
vt 0.375000 0.500000
vt 0.125000 0.750000
vt 0.568864 0.000000
vt 0.625000 0.000000
vt 0.625000 0.250000
vt 0.568864 0.250000
vt 0.625000 0.500000
vt 0.568864 0.500000
vt 0.625000 0.750000
vt 0.568864 0.750000
vt 0.625000 1.000000
vt 0.568864 1.000000
vt 0.125000 0.500000
vt 0.375000 0.500000
vt 0.375000 0.750000
vt 0.125000 0.750000
vt 0.875000 0.500000
vt 0.875000 0.750000
vt 0.558358 0.000000
vt 0.625000 0.000000
vt 0.625000 0.250000
vt 0.558358 0.250000
vt 0.625000 0.500000
vt 0.558358 0.500000
vt 0.625000 0.750000
vt 0.558358 0.750000
vt 0.558358 1.000000
vt 0.558358 0.750000
vt 0.558358 1.000000
vt 0.125000 0.500000
vt 0.375000 0.500000
vt 0.375000 0.750000
vt 0.125000 0.750000
vt 0.875000 0.500000
vt 0.875000 0.750000
vt 0.375000 0.000000
vt 0.625000 0.000000
vt 0.625000 0.250000
vt 0.375000 0.250000
vt 0.625000 0.500000
vt 0.375000 0.500000
vt 0.625000 0.750000
vt 0.375000 0.750000
vt 0.625000 1.000000
vt 0.375000 1.000000
vt 0.125000 0.500000
vt 0.125000 0.750000
vt 0.875000 0.500000
vt 0.875000 0.750000
vt 0.384689 0.750000
vt 0.384689 1.000000
vt 0.384689 0.500000
vt 0.384689 0.250000
vt 0.384689 0.000000
vt 0.386338 0.750000
vt 0.386338 1.000000
vt 0.386338 0.500000
vt 0.386338 0.250000
vt 0.386338 0.000000
vt 0.558358 0.000000
vt 0.625000 0.000000
vt 0.625000 0.750000
vt 0.875000 0.750000
vt 0.375000 0.000000
vt 0.375000 0.250000
vt 0.384689 0.250000
vt 0.375000 0.250000
vt 0.375000 1.000000
vt 0.375000 0.000000
vt 0.375000 0.250000
vt 0.375000 1.000000
vt 0.375000 0.500000
vt 0.384689 0.500000
vt 0.125000 0.500000
vn -0.9986 0.0527 0.0000
vn 0.0000 0.0000 -1.0000
vn 0.9986 -0.0527 0.0000
vn 0.0000 0.0000 1.0000
vn -0.0527 -0.9986 0.0000
vn 0.0527 0.9986 0.0000
vn 0.0000 1.0000 0.0000
vn -1.0000 0.0000 0.0000
vn 0.0000 -1.0000 0.0000
vn 1.0000 0.0000 0.0000
vn -0.9260 -0.3769 -0.0204
vn 0.9370 0.3451 0.0534
vn 0.3728 -0.9279 0.0000
vn -0.3728 0.9279 0.0000
vn -0.9279 -0.3728 0.0000
vn 0.9279 0.3728 0.0000
vn 0.3245 -0.9458 0.0150
vn 0.9226 0.3818 0.0560
vn -0.9282 -0.3713 -0.0235
vn -0.9264 -0.3766 0.0027
vn 0.9314 0.3640 0.0060
vn -0.9285 -0.3714 -0.0011
vn -0.9284 -0.3715 0.0001
vn 0.9240 0.3824 0.0027
vn 0.9268 0.3756 0.0003
vn -0.3705 0.9286 0.0201
usemtl Material
s off
f 1/1/1 2/2/1 4/3/1 3/4/1
f 3/4/2 4/3/2 8/5/2 7/6/2
f 7/6/3 8/5/3 6/7/3 5/8/3
f 5/8/4 6/7/4 2/9/4 1/10/4
f 3/11/5 7/6/5 5/8/5 1/12/5
f 8/5/6 4/13/6 2/14/6 6/7/6
f 9/15/7 13/16/7 15/17/7 11/18/7
f 12/19/4 11/18/4 15/20/4 16/21/4
f 16/22/8 15/23/8 13/24/8 14/25/8
f 14/26/9 10/27/9 12/19/9 16/28/9
f 10/27/10 9/15/10 11/18/10 12/19/10
f 14/25/2 13/24/2 9/15/2 10/27/2
f 41/29/11 18/30/11 20/31/11 42/32/11
f 42/32/2 20/31/2 24/33/2 43/34/2
f 43/34/12 24/33/12 22/35/12 44/36/12
f 44/36/4 22/35/4 18/37/4 41/38/4
f 19/39/13 23/40/13 21/41/13 17/42/13
f 24/33/14 20/43/14 18/44/14 22/35/14
f 45/45/15 26/46/15 28/47/15 46/48/15
f 46/48/2 28/47/2 32/49/2 47/50/2
f 47/50/16 32/49/16 30/51/16 48/52/16
f 45/53/17 48/52/17 43/54/17 42/55/17
f 27/56/13 31/57/13 29/58/13 25/59/13
f 32/49/14 28/60/14 26/61/14 30/51/14
f 33/62/1 34/63/1 36/64/1 35/65/1
f 35/65/2 36/64/2 40/66/2 39/67/2
f 39/67/3 40/66/3 38/68/3 37/69/3
f 37/69/4 38/68/4 34/70/4 33/71/4
f 35/72/5 39/67/5 37/69/5 33/73/5
f 40/66/6 36/74/6 34/75/6 38/68/6
f 51/76/4 44/36/4 41/38/4 52/77/4
f 50/78/18 43/34/18 44/36/18 51/76/18
f 49/79/2 42/32/2 43/34/2 50/78/2
f 52/80/19 41/29/19 42/32/19 49/79/19
f 55/81/4 48/52/4 45/53/4 56/82/4
f 54/83/16 47/50/16 48/52/16 55/81/16
f 53/84/2 46/48/2 47/50/2 54/83/2
f 56/85/15 45/45/15 46/48/15 53/84/15
f 26/46/20 45/45/20 42/86/20 20/87/20
f 48/52/21 30/51/21 24/88/21 43/54/21
f 30/51/14 26/61/14 20/89/14 24/88/14
f 17/90/22 52/80/22 49/79/22 19/91/22
f 19/91/23 49/79/23 56/92/23 25/93/23
f 23/40/24 50/78/24 51/76/24 21/41/24
f 21/41/4 51/76/4 52/77/4 17/94/4
f 25/95/15 56/85/15 53/84/15 27/96/15
f 27/96/2 53/84/2 54/83/2 31/57/2
f 31/57/16 54/83/16 55/81/16 29/58/16
f 29/58/4 55/81/4 56/82/4 25/97/4
f 50/78/25 23/40/25 29/98/25 55/99/25
f 49/79/26 50/78/26 55/99/26 56/92/26
f 23/40/13 19/39/13 25/100/13 29/98/13
