# Blender v2.90.1 OBJ File: '衣柜2.blend'
# www.blender.org
mtllib 衣柜2.mtl
o Cube
v 1.000000 1.860779 -0.634271
v 1.000000 -1.888522 -0.645906
v 1.000000 1.860779 1.452967
v 1.000000 -1.888522 1.464602
v -1.000000 2.000000 1.581965
v -1.000000 -2.000000 1.581965
v 1.000000 0.789669 -0.634271
v 1.000000 0.789669 1.452967
v 1.000000 2.000000 -0.701265
v 1.000000 2.000000 1.581965
v 1.000000 0.637775 -0.645906
v 1.000000 0.637775 1.464602
v -0.798646 1.860779 -0.634271
v -0.798646 1.860779 1.452967
v -0.798646 0.789669 -0.634271
v -0.798646 0.789669 1.452967
v 1.000000 -2.000000 -0.701818
v 1.000000 -2.000000 1.581965
v -0.816143 0.637775 -0.645906
v -0.816143 -1.888522 -0.645906
v -0.816143 0.637775 1.464602
v -0.816143 -1.888522 1.464602
v 1.000000 1.860779 -2.600254
v 1.000000 -1.888522 -2.607966
v 1.000000 1.860779 -0.738478
v 1.000000 -1.888522 -0.730765
v -1.000000 2.000000 -2.685767
v -1.000000 -2.000000 -2.685767
v 1.000000 0.789669 -2.600254
v 1.000000 0.789669 -0.738478
v -1.000000 0.000000 -2.685767
v 1.000000 2.000000 -2.685767
v 1.000000 0.637775 -2.607966
v 1.000000 0.637775 -0.730765
v -0.787795 1.860779 -2.600254
v -0.787795 1.860779 -0.738478
v -0.787795 0.789669 -2.600254
v -0.787795 0.789669 -0.738478
v 1.000000 0.000000 -2.685767
v 1.000000 -2.000000 -2.685767
v -0.490469 0.637775 -2.607966
v -0.490469 -1.888522 -2.607966
v -0.490469 0.637775 -0.730765
v -0.490469 -1.888522 -0.730765
vt 0.525181 0.724819
vt 0.525181 0.525181
vt 0.525181 0.525181
vt 0.525181 0.724819
vt 0.493033 0.743033
vt 0.381967 0.743033
vt 0.381967 0.743033
vt 0.493033 0.743033
vt 0.599819 0.724819
vt 0.599819 0.525181
vt 0.625000 0.500000
vt 0.625000 0.750000
vt 0.599819 0.525181
vt 0.599819 0.724819
vt 0.381967 0.506967
vt 0.375000 0.750000
vt 0.375000 0.500000
vt 0.381967 0.506967
vt 0.493033 0.506967
vt 0.493033 0.506967
vt 0.375000 0.750000
vt 0.381967 0.743033
vt 0.493033 0.743033
vt 0.493033 0.506967
vt 0.381967 0.506967
vt 0.375000 0.500000
vt 0.500000 0.500000
vt 0.625000 0.500000
vt 0.599819 0.525181
vt 0.525181 0.525181
vt 0.525181 0.724819
vt 0.599819 0.724819
vt 0.625000 1.000000
vt 0.375000 1.000000
vt 0.625000 0.000000
vt 0.625000 0.250000
vt 0.500000 0.250000
vt 0.375000 0.250000
vt 0.375000 0.000000
vt 0.525181 0.525181
vt 0.525181 0.724819
vt 0.381967 0.743033
vt 0.493033 0.743033
vt 0.625000 0.750000
vt 0.599819 0.525181
vt 0.599819 0.724819
vt 0.381967 0.506967
vt 0.493033 0.506967
vt 0.875000 0.500000
vt 0.875000 0.750000
vt 0.125000 0.500000
vt 0.125000 0.750000
vn 0.0000 1.0000 0.0000
vn 0.0000 0.0000 -1.0000
vn 1.0000 0.0000 0.0000
vn 0.0000 0.0000 1.0000
vn 0.0000 -1.0000 0.0000
vn -1.0000 0.0000 0.0000
usemtl Material
s off
f 8/1/1 7/2/1 15/3/1 16/4/1
f 12/5/2 4/6/2 22/7/2 21/8/2
f 3/9/3 1/10/3 9/11/3 10/12/3
f 15/3/3 13/13/3 14/14/3 16/4/3
f 7/2/4 1/10/4 13/13/4 15/3/4
f 3/9/2 8/1/2 16/4/2 14/14/2
f 1/10/5 3/9/5 14/14/5 13/13/5
f 2/15/3 4/6/3 18/16/3 17/17/3
f 20/18/3 19/19/3 21/8/3 22/7/3
f 4/6/1 2/15/1 20/18/1 22/7/1
f 2/15/4 11/20/4 19/19/4 20/18/4
f 11/20/5 12/5/5 21/8/5 19/19/5
f 12/5/3 11/20/3 2/15/3 17/21/3 26/22/3 34/23/3 33/24/3 24/25/3 40/26/3 39/27/3 32/28/3 23/29/3 29/30/3 30/31/3 25/32/3 9/11/3 1/10/3 7/2/3 8/1/3 3/9/3 10/12/3 18/16/3 4/6/3
f 18/16/4 10/12/4 5/33/4 6/34/4
usemtl Material.001
f 5/35/6 27/36/6 31/37/6 28/38/6 6/39/6
f 30/31/1 29/30/1 37/40/1 38/41/1
f 31/37/2 27/36/2 32/28/2 39/27/2
f 28/38/2 31/37/2 39/27/2 40/26/2
f 34/23/2 26/22/2 44/42/2 43/43/2
f 25/32/3 23/29/3 32/28/3 9/44/3
f 37/40/3 35/45/3 36/46/3 38/41/3
f 29/30/4 23/29/4 35/45/4 37/40/4
f 25/32/2 30/31/2 38/41/2 36/46/2
f 23/29/5 25/32/5 36/46/5 35/45/5
f 24/25/3 26/22/3 17/21/3 40/26/3
f 42/47/3 41/48/3 43/43/3 44/42/3
f 26/22/1 24/25/1 42/47/1 44/42/1
f 24/25/4 33/24/4 41/48/4 42/47/4
f 33/24/5 34/23/5 43/43/5 41/48/5
f 32/28/1 27/49/1 5/50/1 10/12/1 9/44/1
f 28/51/5 40/26/5 17/17/5 18/16/5 6/52/5
o 立方体
v -0.987204 -2.006635 -2.710965
v -0.987204 1.993365 -2.710965
v -0.987204 -2.006635 -4.019458
v -0.987204 1.993365 -4.019458
v 1.012796 -1.940353 -2.764400
v 1.012796 1.920282 -2.787123
v 1.012796 -1.940353 -3.966023
v 1.012796 1.920282 -3.943300
v -0.987204 1.010280 -2.710965
v -0.987204 1.010280 -4.019458
v 1.012796 1.083363 -3.943300
v 1.012796 1.083363 -2.787123
v -0.987204 0.029678 -4.019458
v 1.012796 0.117756 -3.946243
v 1.012796 0.117756 -2.784180
v -0.987204 0.029678 -2.710965
v -0.987204 -0.988479 -4.019458
v 1.012796 -0.940049 -3.964898
v 1.012796 -0.940049 -2.765525
v -0.987204 -0.988479 -2.710965
v 1.012796 1.993365 -4.019458
v 1.012796 1.993365 -2.710965
v 1.012796 0.922201 -3.946243
v 1.012796 0.922201 -2.784180
v 1.012796 1.010280 -4.019458
v 1.012796 1.010280 -2.710965
v 1.012796 -0.018752 -3.964898
v 1.012796 -0.018752 -2.765525
v 1.012796 0.029678 -4.019458
v 1.012796 0.029678 -2.710965
v 1.012796 -1.054761 -3.966023
v 1.012796 -1.054761 -2.764400
v 1.012796 -0.988479 -4.019458
v 1.012796 -2.006635 -4.019458
v 1.012796 -2.006635 -2.710965
v 1.012796 -0.988479 -2.710965
v -0.890530 1.920282 -3.943300
v -0.890530 1.920282 -2.787123
v -0.890530 1.083363 -3.943300
v -0.890530 1.083363 -2.787123
v -0.675134 0.922201 -3.946243
v -0.675134 0.922201 -2.784180
v -0.675134 0.117756 -3.946243
v -0.675134 0.117756 -2.784180
v -0.535481 -0.018752 -3.964898
v -0.535481 -0.018752 -2.765525
v -0.535481 -0.940049 -3.964898
v -0.535481 -0.940049 -2.765525
v -0.422883 -1.054761 -3.966023
v -0.422883 -1.940353 -3.966023
v -0.422883 -1.940353 -2.764400
v -0.422883 -1.054761 -2.764400
vt 0.563557 0.000000
vt 0.625000 0.000000
vt 0.625000 0.250000
vt 0.563557 0.250000
vt 0.625000 0.500000
vt 0.563557 0.500000
vt 0.620432 0.504568
vt 0.620432 0.745432
vt 0.620432 0.745432
vt 0.620432 0.504568
vt 0.563557 0.750000
vt 0.625000 0.750000
vt 0.625000 1.000000
vt 0.563557 1.000000
vt 0.125000 0.500000
vt 0.375000 0.500000
vt 0.375000 0.750000
vt 0.125000 0.750000
vt 0.875000 0.500000
vt 0.875000 0.750000
vt 0.502270 0.750000
vt 0.502270 1.000000
vt 0.507774 0.744495
vt 0.507774 0.505505
vt 0.507774 0.505505
vt 0.507774 0.744495
vt 0.502270 0.250000
vt 0.502270 0.500000
vt 0.502270 0.000000
vt 0.438635 0.000000
vt 0.438635 0.250000
vt 0.438635 0.500000
vt 0.499243 0.746973
vt 0.441662 0.746973
vt 0.441662 0.746973
vt 0.499243 0.746973
vt 0.438635 0.750000
vt 0.438635 1.000000
vt 0.375000 1.000000
vt 0.434492 0.504143
vt 0.434492 0.745857
vt 0.434492 0.745857
vt 0.434492 0.504143
vt 0.375000 0.250000
vt 0.375000 0.000000
vt 0.568125 0.504568
vt 0.568125 0.745432
vt 0.558052 0.744495
vt 0.558052 0.505505
vt 0.499243 0.503027
vt 0.441662 0.503027
vt 0.379143 0.504143
vt 0.379143 0.745857
vt 0.568125 0.504568
vt 0.568125 0.745432
vt 0.558052 0.505505
vt 0.558052 0.744495
vt 0.441662 0.503027
vt 0.499243 0.503027
vt 0.379143 0.504143
vt 0.379143 0.745857
vn -1.0000 0.0000 0.0000
vn 0.0000 0.0000 -1.0000
vn 0.0000 -1.0000 0.0000
vn 0.0000 0.0000 1.0000
vn 0.0000 1.0000 0.0000
vn 1.0000 0.0000 0.0000
usemtl None
s off
f 53/53/7 46/54/7 48/55/7 54/56/7
f 54/56/8 48/55/8 65/57/8 69/58/8
f 52/59/9 50/60/9 82/61/9 81/62/9
f 70/63/10 66/64/10 46/65/10 53/66/10
f 47/67/9 78/68/9 79/69/9 45/70/9
f 65/57/11 48/71/11 46/72/11 66/64/11
f 74/73/10 70/63/10 53/66/10 60/74/10
f 59/75/11 58/76/11 87/77/11 88/78/11
f 57/79/8 54/56/8 69/58/8 73/80/8
f 60/81/7 53/53/7 54/56/7 57/79/7
f 64/82/7 60/81/7 57/79/7 61/83/7
f 61/83/8 57/79/8 73/80/8 77/84/8
f 72/85/8 63/86/8 92/87/8 90/88/8
f 80/89/10 74/73/10 60/74/10 64/90/10
f 79/69/10 80/89/10 64/90/10 45/91/10
f 75/92/9 76/93/9 96/94/9 93/95/9
f 47/96/8 61/83/8 77/84/8 78/68/8
f 45/97/7 64/82/7 61/83/7 47/96/7
f 50/60/12 52/59/12 65/57/12 66/64/12
f 52/59/12 55/98/12 69/58/12 65/57/12
f 56/99/12 50/60/12 66/64/12 70/63/12
f 55/98/12 56/99/12 70/63/12 69/58/12
f 68/100/12 67/101/12 69/58/12 70/63/12
f 67/101/12 58/76/12 73/80/12 69/58/12
f 59/75/12 68/100/12 70/63/12 74/73/12
f 58/76/12 59/75/12 74/73/12 73/80/12
f 72/85/12 71/102/12 73/80/12 74/73/12
f 71/102/12 62/103/12 77/84/12 73/80/12
f 63/86/12 72/85/12 74/73/12 80/89/12
f 62/103/12 63/86/12 80/89/12 77/84/12
f 75/92/12 51/104/12 78/68/12 77/84/12
f 51/104/12 49/105/12 79/69/12 78/68/12
f 49/105/12 76/93/12 80/89/12 79/69/12
f 76/93/12 75/92/12 77/84/12 80/89/12
f 83/106/12 81/62/12 82/61/12 84/107/12
f 56/99/11 55/98/11 83/106/11 84/107/11
f 55/98/10 52/59/10 81/62/10 83/106/10
f 50/60/8 56/99/8 84/107/8 82/61/8
f 87/77/12 85/108/12 86/109/12 88/78/12
f 58/76/10 67/101/10 85/108/10 87/77/10
f 68/100/8 59/75/8 88/78/8 86/109/8
f 67/101/9 68/100/9 86/109/9 85/108/9
f 91/110/12 89/111/12 90/88/12 92/87/12
f 71/102/9 72/85/9 90/88/9 89/111/9
f 63/86/11 62/103/11 91/110/11 92/87/11
f 62/103/10 71/102/10 89/111/10 91/110/10
f 94/112/12 93/95/12 96/94/12 95/113/12
f 49/105/11 51/104/11 94/112/11 95/113/11
f 76/93/8 49/105/8 95/113/8 96/94/8
f 51/104/10 75/92/10 93/95/10 94/112/10
